<?xml version="1.0" standalone="no"?>
<!DOCTYPE svg PUBLIC "-//W3C//DTD SVG 20010904//EN"
 "http://www.w3.org/TR/2001/REC-SVG-20010904/DTD/svg10.dtd">
<svg version="1.0" xmlns="http://www.w3.org/2000/svg"
 width="512.000000pt" height="512.000000pt" viewBox="0 0 512.000000 512.000000"
 preserveAspectRatio="xMidYMid meet">
<metadata>
Created by potrace 1.14, written by Peter Selinger 2001-2017
</metadata>
<g transform="translate(0.000000,512.000000) scale(0.100000,-0.100000)"
fill="#000000" stroke="none">
<path d="M0 2560 l0 -2560 2560 0 2560 0 0 2560 0 2560 -2560 0 -2560 0 0
-2560z m3414 1244 l79 -95 -20 -22 c-11 -12 -142 -167 -291 -345 -149 -177
-275 -322 -279 -321 -18 3 -302 352 -296 363 4 6 41 50 82 99 l74 88 28 -33
c16 -18 45 -54 66 -80 21 -26 41 -47 45 -48 4 0 100 110 214 245 113 135 209
245 212 244 4 0 42 -43 86 -95z m-1431 -1307 c76 -230 141 -416 143 -414 3 2
62 191 133 418 l129 414 111 3 c61 1 111 1 111 -1 0 -9 -433 -1248 -466 -1333
-41 -108 -98 -192 -157 -233 -63 -43 -147 -65 -219 -57 -91 11 -88 7 -88 101
l0 82 70 1 c82 0 148 27 181 74 12 17 39 73 60 126 l37 95 -18 51 c-10 28
-100 278 -200 556 -101 278 -185 513 -188 523 -4 16 4 17 108 15 l113 -3 140
-418z m1017 -157 l0 -581 -102 3 -103 3 -3 578 -2 577 105 0 105 0 0 -580z"/>
</g>
</svg>
