<svg width="64" height="64" xmlns="http://www.w3.org/2000/svg" viewBox="0 0 64 64">

 <g>
  <title>background</title>
  <rect fill="none" id="canvas_background" height="402" width="582" y="-1" x="-1"/>
 </g>
 <g>
  <title>Layer 1</title>
  <g id="svg_1">
   <path id="svg_2" d="m32,61a3.016,3.016 0 0 0 3.134,-2.874l0,-52.252a3.146,3.146 0 0 0 -6.269,0l0,52.252a3.016,3.016 0 0 0 3.135,2.874zm1.135,-55.126l0,52.252l0,-52.252zm-14.068,48.826a3.016,3.016 0 0 0 3.133,-2.878l0,-39.644a3.016,3.016 0 0 0 -3.133,-2.878a3.016,3.016 0 0 0 -3.134,2.875l0,39.647a3.016,3.016 0 0 0 3.134,2.878zm25.866,-4.822a3.016,3.016 0 0 0 3.134,-2.878l0,-30a3.146,3.146 0 0 0 -6.267,0l0,30a3.016,3.016 0 0 0 3.133,2.878zm1.135,-32.878l0,30l0,-30zm11.798,2.794a3.016,3.016 0 0 0 -3.134,2.875l0,18.6a3.146,3.146 0 0 0 6.268,0l0,-18.6a3.016,3.016 0 0 0 -3.134,-2.875zm-1.134,21.477l0,-18.6l0,18.6zm-50.598,0.277a3.016,3.016 0 0 0 3.134,-2.874l0,-14.015a3.016,3.016 0 0 0 -3.134,-2.874a3.016,3.016 0 0 0 -3.134,2.874l0,14.015a3.016,3.016 0 0 0 3.134,2.874z"/>
  </g>
 </g>
</svg>